<svg xmlns="http://www.w3.org/2000/svg" x="0px" y="0px"
width="32" height="32"
viewBox="0 0 172 172"
style=" fill:#000000;"><g fill="none" fill-rule="nonzero" stroke="none" stroke-width="1" stroke-linecap="butt" stroke-linejoin="miter" stroke-miterlimit="10" stroke-dasharray="" stroke-dashoffset="0" font-family="none" font-weight="none" font-size="none" text-anchor="none" style="mix-blend-mode: normal"><path d="M0,172v-172h172v172z" fill="none"></path><g fill="#0088ea"><path d="M26.875,21.5c-8.84188,0 -16.125,7.28312 -16.125,16.125v89.58333c0,12.79944 10.49222,23.29167 23.29167,23.29167h103.91667c12.79944,0 23.29167,-10.49222 23.29167,-23.29167v-53.75c0,-8.84188 -7.28312,-16.125 -16.125,-16.125h-5.375v-19.70833c0,-8.84188 -7.28312,-16.125 -16.125,-16.125zM26.875,32.25h96.75c3.03329,0 5.375,2.34171 5.375,5.375v24.2015c-0.09479,0.57703 -0.09479,1.16565 0,1.74268v60.05583c-0.02741,1.93842 0.99102,3.74144 2.66532,4.71865c1.6743,0.97721 3.74507,0.97721 5.41937,0c1.6743,-0.97721 2.69273,-2.78023 2.66532,-4.71865v-55.54167h5.375c3.03329,0 5.375,2.34171 5.375,5.375v53.75c0,6.98772 -5.55394,12.54167 -12.54167,12.54167h-103.91667c-6.98772,0 -12.54167,-5.55394 -12.54167,-12.54167v-89.58333c0,-3.03329 2.34171,-5.375 5.375,-5.375zM37.625,53.75c-1.93842,-0.02741 -3.74144,0.99102 -4.71865,2.66532c-0.97721,1.6743 -0.97721,3.74507 0,5.41937c0.97721,1.6743 2.78023,2.69273 4.71865,2.66532h75.25c1.93842,0.02741 3.74144,-0.99102 4.71865,-2.66532c0.97721,-1.6743 0.97721,-3.74507 0,-5.41937c-0.97721,-1.6743 -2.78023,-2.69273 -4.71865,-2.66532zM37.625,82.41667c-2.96841,0.0003 -5.3747,2.40659 -5.375,5.375v25.08333c0.0003,2.96841 2.40659,5.3747 5.375,5.375h25.08333c2.96841,-0.0003 5.3747,-2.40659 5.375,-5.375v-25.08333c-0.0003,-2.96841 -2.40659,-5.3747 -5.375,-5.375zM84.20833,82.41667c-1.93842,-0.02741 -3.74144,0.99102 -4.71865,2.66532c-0.97721,1.6743 -0.97721,3.74507 0,5.41937c0.97721,1.6743 2.78023,2.69273 4.71865,2.66532h28.66667c1.93842,0.02741 3.74144,-0.99102 4.71865,-2.66532c0.97721,-1.6743 0.97721,-3.74507 0,-5.41937c-0.97721,-1.6743 -2.78023,-2.69273 -4.71865,-2.66532zM43,93.16667h14.33333v14.33333h-14.33333zM84.20833,107.5c-1.93842,-0.02741 -3.74144,0.99102 -4.71865,2.66532c-0.97721,1.6743 -0.97721,3.74507 0,5.41937c0.97721,1.6743 2.78023,2.69273 4.71865,2.66532h28.66667c1.93842,0.02741 3.74144,-0.99102 4.71865,-2.66532c0.97721,-1.6743 0.97721,-3.74507 0,-5.41937c-0.97721,-1.6743 -2.78023,-2.69273 -4.71865,-2.66532z"></path></g></g></svg>